$MeshFormat
4.1 0 8
$EndMeshFormat
$PhysicalNames
5
1 1 "bottom"
1 2 "top"
1 3 "right"
1 4 "left"
2 1 "column"
$EndPhysicalNames
$Entities
4 4 1 0
1 0 0 0 0 
2 1 0 0 0 
3 0 10 0 0 
4 1 10 0 0 
1 0 0 0 1 0 0 1 1 2 1 -2 
2 0 10 0 1 10 0 1 2 2 3 -4 
3 0 0 0 0 10 0 1 4 2 1 -3 
4 1 0 0 1 10 0 1 3 2 2 -4 
5 0 0 0 1 10 0 1 0 4 1 4 -2 -3 
$EndEntities
$Nodes
9 203 1 203
0 1 0 1
1
0 0 0
0 2 0 1
2
1 0 0
0 3 0 1
3
0 10 0
0 4 0 1
4
1 10 0
1 1 0 1
5
0.4999999999986718 0 0
1 2 0 1
6
0.4999999999986718 10 0
1 3 0 79
7
8
9
10
11
12
13
14
15
16
17
18
19
20
21
22
23
24
25
26
27
28
29
30
31
32
33
34
35
36
37
38
39
40
41
42
43
44
45
46
47
48
49
50
51
52
53
54
55
56
57
58
59
60
61
62
63
64
65
66
67
68
69
70
71
72
73
74
75
76
77
78
79
80
81
82
83
84
85
0 0.25 0
0 0.5 0
0 0.75 0
0 1 0
0 1.25 0
0 1.5 0
0 1.75 0
0 2 0
0 2.25 0
0 2.5 0
0 2.75 0
0 3 0
0 3.25 0
0 3.5 0
0 3.75 0
0 4 0
0 4.25 0
0 4.5 0
0 4.75 0
0 5 0
0 5.25 0
0 5.5 0
0 5.75 0
0 6 0
0 6.25 0
0 6.5 0
0 6.75 0
0 7 0
0 7.25 0
0 7.5 0
0 7.75 0
0 8 0
0 8.25 0
0 8.5 0
0 8.75 0
0 9 0
0 9.25 0
0 9.5 0
0 9.75 0
0 0.1249999999999992 0
0 0.3750000000000136 0
0 0.624999999999952 0
0 0.874999999999993 0
0 1.125000000000015 0
0 1.374999999999989 0
0 1.62500000000001 0
0 1.875000000000006 0
0 2.124999999999941 0
0 2.374999999999954 0
0 2.624999999999963 0
0 2.875 0
0 3.124999999999999 0
0 3.375000000000012 0
0 3.625000000000032 0
0 3.874999999999997 0
0 4.124999999999948 0
0 4.375 0
0 4.62500000000002 0
0 4.874999999999943 0
0 5.125 0
0 5.375000000000093 0
0 5.625000000000062 0
0 5.87500000000002 0
0 6.124999999999977 0
0 6.374999999999959 0
0 6.625000000000062 0
0 6.875 0
0 7.125000000000002 0
0 7.374999999999947 0
0 7.625 0
0 7.875000000000052 0
0 8.124999999999895 0
0 8.374999999999957 0
0 8.62499999999997 0
0 8.875000000000176 0
0 9.125 0
0 9.375 0
0 9.62499999999992 0
0 9.874999999999869 0
1 4 0 79
86
87
88
89
90
91
92
93
94
95
96
97
98
99
100
101
102
103
104
105
106
107
108
109
110
111
112
113
114
115
116
117
118
119
120
121
122
123
124
125
126
127
128
129
130
131
132
133
134
135
136
137
138
139
140
141
142
143
144
145
146
147
148
149
150
151
152
153
154
155
156
157
158
159
160
161
162
163
164
1 0.25 0
1 0.5 0
1 0.75 0
1 1 0
1 1.25 0
1 1.5 0
1 1.75 0
1 2 0
1 2.25 0
1 2.5 0
1 2.75 0
1 3 0
1 3.25 0
1 3.5 0
1 3.75 0
1 4 0
1 4.25 0
1 4.5 0
1 4.75 0
1 5 0
1 5.25 0
1 5.5 0
1 5.75 0
1 6 0
1 6.25 0
1 6.5 0
1 6.75 0
1 7 0
1 7.25 0
1 7.5 0
1 7.75 0
1 8 0
1 8.25 0
1 8.5 0
1 8.75 0
1 9 0
1 9.25 0
1 9.5 0
1 9.75 0
1 0.1249999999999992 0
1 0.3750000000000136 0
1 0.624999999999952 0
1 0.874999999999993 0
1 1.125000000000015 0
1 1.374999999999989 0
1 1.62500000000001 0
1 1.875000000000006 0
1 2.124999999999941 0
1 2.374999999999954 0
1 2.624999999999963 0
1 2.875 0
1 3.124999999999999 0
1 3.375000000000012 0
1 3.625000000000032 0
1 3.874999999999997 0
1 4.124999999999948 0
1 4.375 0
1 4.62500000000002 0
1 4.874999999999943 0
1 5.125 0
1 5.375000000000093 0
1 5.625000000000062 0
1 5.87500000000002 0
1 6.124999999999977 0
1 6.374999999999959 0
1 6.625000000000062 0
1 6.875 0
1 7.125000000000002 0
1 7.374999999999947 0
1 7.625 0
1 7.875000000000052 0
1 8.124999999999895 0
1 8.374999999999957 0
1 8.62499999999997 0
1 8.875000000000176 0
1 9.125 0
1 9.375 0
1 9.62499999999992 0
1 9.874999999999869 0
2 5 0 39
165
166
167
168
169
170
171
172
173
174
175
176
177
178
179
180
181
182
183
184
185
186
187
188
189
190
191
192
193
194
195
196
197
198
199
200
201
202
203
0.5 0.2500000000000001 0
0.5 0.5000000000000002 0
0.5 0.7499999999999998 0
0.5 1 0
0.5 1.25 0
0.5 1.5 0
0.5 1.75 0
0.5 2 0
0.5 2.25 0
0.5 2.5 0
0.5 2.75 0
0.5 3 0
0.5 3.25 0
0.5 3.5 0
0.5 3.75 0
0.5 4 0
0.5 4.25 0
0.5 4.5 0
0.5 4.75 0
0.5 5 0
0.5 5.25 0
0.5 5.5 0
0.5 5.75 0
0.5 6 0
0.5 6.25 0
0.5 6.5 0
0.5 6.75 0
0.5 7 0
0.5 7.25 0
0.5 7.5 0
0.5 7.75 0
0.5 8 0
0.5 8.25 0
0.5 8.5 0
0.5 8.75 0
0.5 9 0
0.5 9.25 0
0.5 9.5 0
0.5 9.75 0
$EndNodes
$Elements
5 122 1 122
1 1 8 1
1 1 2 5 
1 2 8 1
2 3 4 6 
1 3 8 40
3 1 7 46 
4 7 8 47 
5 8 9 48 
6 9 10 49 
7 10 11 50 
8 11 12 51 
9 12 13 52 
10 13 14 53 
11 14 15 54 
12 15 16 55 
13 16 17 56 
14 17 18 57 
15 18 19 58 
16 19 20 59 
17 20 21 60 
18 21 22 61 
19 22 23 62 
20 23 24 63 
21 24 25 64 
22 25 26 65 
23 26 27 66 
24 27 28 67 
25 28 29 68 
26 29 30 69 
27 30 31 70 
28 31 32 71 
29 32 33 72 
30 33 34 73 
31 34 35 74 
32 35 36 75 
33 36 37 76 
34 37 38 77 
35 38 39 78 
36 39 40 79 
37 40 41 80 
38 41 42 81 
39 42 43 82 
40 43 44 83 
41 44 45 84 
42 45 3 85 
1 4 8 40
43 2 86 125 
44 86 87 126 
45 87 88 127 
46 88 89 128 
47 89 90 129 
48 90 91 130 
49 91 92 131 
50 92 93 132 
51 93 94 133 
52 94 95 134 
53 95 96 135 
54 96 97 136 
55 97 98 137 
56 98 99 138 
57 99 100 139 
58 100 101 140 
59 101 102 141 
60 102 103 142 
61 103 104 143 
62 104 105 144 
63 105 106 145 
64 106 107 146 
65 107 108 147 
66 108 109 148 
67 109 110 149 
68 110 111 150 
69 111 112 151 
70 112 113 152 
71 113 114 153 
72 114 115 154 
73 115 116 155 
74 116 117 156 
75 117 118 157 
76 118 119 158 
77 119 120 159 
78 120 121 160 
79 121 122 161 
80 122 123 162 
81 123 124 163 
82 124 4 164 
2 5 16 40
83 1 2 86 7 5 125 165 46 
84 7 86 87 8 165 126 166 47 
85 8 87 88 9 166 127 167 48 
86 9 88 89 10 167 128 168 49 
87 10 89 90 11 168 129 169 50 
88 11 90 91 12 169 130 170 51 
89 12 91 92 13 170 131 171 52 
90 13 92 93 14 171 132 172 53 
91 14 93 94 15 172 133 173 54 
92 15 94 95 16 173 134 174 55 
93 16 95 96 17 174 135 175 56 
94 17 96 97 18 175 136 176 57 
95 18 97 98 19 176 137 177 58 
96 19 98 99 20 177 138 178 59 
97 20 99 100 21 178 139 179 60 
98 21 100 101 22 179 140 180 61 
99 22 101 102 23 180 141 181 62 
100 23 102 103 24 181 142 182 63 
101 24 103 104 25 182 143 183 64 
102 25 104 105 26 183 144 184 65 
103 26 105 106 27 184 145 185 66 
104 27 106 107 28 185 146 186 67 
105 28 107 108 29 186 147 187 68 
106 29 108 109 30 187 148 188 69 
107 30 109 110 31 188 149 189 70 
108 31 110 111 32 189 150 190 71 
109 32 111 112 33 190 151 191 72 
110 33 112 113 34 191 152 192 73 
111 34 113 114 35 192 153 193 74 
112 35 114 115 36 193 154 194 75 
113 36 115 116 37 194 155 195 76 
114 37 116 117 38 195 156 196 77 
115 38 117 118 39 196 157 197 78 
116 39 118 119 40 197 158 198 79 
117 40 119 120 41 198 159 199 80 
118 41 120 121 42 199 160 200 81 
119 42 121 122 43 200 161 201 82 
120 43 122 123 44 201 162 202 83 
121 44 123 124 45 202 163 203 84 
122 45 124 4 3 203 164 6 85 
$EndElements
